<?xml version="1.0" standalone="no"?><!DOCTYPE svg PUBLIC "-//W3C//DTD SVG 1.1//EN" "http://www.w3.org/Graphics/SVG/1.1/DTD/svg11.dtd"><svg t="1755440136948" class="icon" viewBox="0 0 1024 1024" version="1.1" xmlns="http://www.w3.org/2000/svg" p-id="2914" xmlns:xlink="http://www.w3.org/1999/xlink" width="200" height="200"><path d="M0 0h1024v1024H0z" fill="#FF6633" p-id="2915"></path><path d="M698.982 42.394C540.11 9.83 409.446 73.677 374.067 90.982c-94.72 46.285-147.712 108.288-174.49 140.288-25.958 31.028-82.739 105.933-108.287 215.86-21.658 93.132-10.752 167.782-6.042 194.252 11.469 64.308 33.28 186.88 150.426 275.2 132.505 99.892 293.478 85.556 342.988 80.948 107.264-10.036 289.485-57.293 300.852-145.716 5.17-39.936-24.423-89.446-66.202-102.502-65.638-20.531-108.34 63.54-228.66 80.947-8.55 1.229-126.566 16.691-216.626-48.589-105.882-76.697-98.97-211.302-96.256-264.396 1.536-30.567 5.58-93.543 48.128-161.895 14.796-23.757 60.313-94.566 156.467-134.912 25.293-10.598 76.851-31.59 144.435-26.982 70.042 4.761 120.986 34.509 144.435 48.589 75.827 45.414 86.528 90.06 120.371 86.323 35.892-3.943 69.99-59.29 66.202-107.93-7.424-93.798-155.597-158.105-252.826-178.073z" fill="#FFFFFF" p-id="2916"></path></svg>